<?xml version="1.0" standalone="no"?>
<!DOCTYPE svg PUBLIC "-//W3C//DTD SVG 20010904//EN"
 "http://www.w3.org/TR/2001/REC-SVG-20010904/DTD/svg10.dtd">
<svg version="1.0" xmlns="http://www.w3.org/2000/svg"
 width="512.000000pt" height="512.000000pt" viewBox="0 0 512.000000 512.000000"
 preserveAspectRatio="xMidYMid meet">
<metadata>
Created by potrace 1.11, written by Peter Selinger 2001-2013
</metadata>
<g transform="translate(0.000000,512.000000) scale(0.100000,-0.100000)"
fill="#000000" stroke="none">
<path d="M2415 4714 c-191 -20 -427 -71 -598 -130 -95 -33 -139 -51 -383 -156
-331 -142 -623 -403 -774 -690 -14 -27 -27 -48 -30 -48 -3 0 -20 56 -37 125
-38 145 -58 199 -73 190 -13 -8 -13 -61 2 -342 11 -214 10 -240 -7 -347 -11
-69 -23 -115 -29 -113 -21 6 -46 107 -85 348 -22 134 -47 270 -56 302 -19 72
-43 132 -51 124 -4 -3 -10 -154 -15 -334 -8 -319 -20 -458 -40 -478 -26 -26
-42 28 -95 340 -51 301 -84 459 -99 473 -26 26 -40 -196 -40 -643 0 -275 2
-316 18 -363 35 -100 79 -130 237 -161 l85 -17 17 -149 c22 -195 54 -596 73
-910 44 -708 89 -924 224 -1068 120 -130 275 -54 297 146 l7 59 56 -54 c131
-127 238 -201 416 -290 137 -69 212 -96 390 -141 224 -58 302 -67 655 -78 541
-18 587 -5 1179 325 272 152 379 219 465 290 l49 41 -6 -30 c-4 -17 -14 -71
-23 -122 -16 -87 -16 -93 0 -118 10 -15 33 -33 51 -41 112 -46 268 30 324 157
20 46 56 258 121 727 17 122 33 236 37 252 5 26 2 30 -15 30 -14 0 -20 5 -16
14 4 10 31 14 105 15 119 2 172 19 195 64 18 35 29 143 79 772 56 717 85 1155
92 1362 l6 192 -26 10 c-35 13 -56 5 -69 -28 -13 -35 -127 -444 -233 -836 -47
-176 -88 -327 -91 -335 -4 -8 -17 31 -30 88 -12 56 -43 153 -68 215 -24 61
-60 161 -80 221 -130 390 -417 698 -851 911 -217 107 -421 171 -670 210 -96
16 -498 28 -590 19z m463 -35 c264 -28 535 -107 771 -225 351 -174 595 -400
760 -704 22 -41 41 -79 41 -83 0 -5 -26 27 -58 70 -32 43 -81 103 -108 133
-27 30 -69 81 -93 112 -60 79 -221 231 -320 302 -198 142 -420 246 -631 296
-293 70 -369 80 -645 80 -269 0 -491 -29 -693 -92 -35 -11 -66 -17 -68 -15 -7
7 201 65 316 88 228 46 516 61 728 38z m503 -220 c55 -23 98 -43 97 -44 -2 -2
-35 7 -74 20 -38 13 -108 31 -155 40 -46 9 -86 19 -88 21 -2 2 24 4 58 4 50 0
81 -8 162 -41z m229 -65 c0 -2 -9 0 -20 6 -11 6 -20 13 -20 16 0 2 9 0 20 -6
11 -6 20 -13 20 -16z m-2198 -48 c-277 -171 -542 -448 -703 -734 l-47 -84 -7
41 c-6 36 -1 51 45 140 137 260 370 483 660 628 58 29 109 53 115 53 5 0 -23
-20 -63 -44z m2066 -17 c106 -42 206 -94 299 -155 113 -75 113 -84 1 -16 -51
30 -131 73 -178 95 -47 21 -112 51 -145 67 -33 15 -71 32 -85 38 -53 24 33 0
108 -29z m338 -64 c93 -70 244 -205 244 -218 0 -15 -28 7 -129 102 -89 83
-135 121 -221 184 -23 16 -23 17 -2 7 12 -6 61 -40 108 -75z m-991 55 c196
-19 331 -57 494 -141 64 -33 107 -57 96 -53 -225 76 -434 124 -634 145 -66 7
-198 10 -315 7 l-201 -4 90 18 c170 33 320 42 470 28z m-845 -33 c0 -16 -212
-123 -355 -179 -55 -22 -138 -59 -185 -84 -47 -25 -80 -41 -75 -36 143 126
250 186 480 268 137 49 135 49 135 31z m1793 -198 c147 -92 323 -243 354 -303
13 -27 11 -26 -18 9 -92 113 -226 216 -417 320 -50 28 -94 56 -96 63 -7 15 74
-25 177 -89z m-1843 60 c-90 -30 -97 -32 -88 -23 9 9 142 54 158 53 8 0 -23
-14 -70 -30z m1024 -58 c459 -93 834 -349 1051 -716 149 -254 218 -526 219
-860 0 -247 -35 -431 -121 -635 -218 -515 -662 -867 -1208 -960 -113 -19 -154
-22 -310 -17 -328 10 -581 91 -860 275 -134 89 -347 300 -434 432 -177 266
-265 534 -277 845 -20 486 131 901 441 1210 203 204 433 331 730 405 171 43
235 49 460 46 158 -3 223 -8 309 -25z m713 -52 c65 -31 236 -140 247 -157 3
-6 -31 13 -77 40 -45 28 -131 75 -192 104 -74 36 -98 52 -75 48 19 -3 63 -19
97 -35z m-2238 -75 c-35 -26 -109 -90 -164 -143 -132 -127 -147 -139 -115 -86
53 90 83 126 127 156 57 40 195 119 207 119 4 0 -20 -21 -55 -46z m2583 -222
c79 -58 91 -72 128 -144 23 -44 40 -81 38 -83 -2 -2 -28 28 -58 66 -55 70
-168 184 -245 247 l-40 33 45 -27 c25 -15 84 -56 132 -92z m-2732 -17 c-24
-25 -46 -45 -49 -45 -3 0 15 20 39 45 24 25 46 45 49 45 3 0 -15 -20 -39 -45z
m-50 -58 c0 -2 -10 -12 -22 -23 l-23 -19 19 23 c18 21 26 27 26 19z m-251
-206 c-64 -108 -87 -111 -27 -3 77 141 73 134 76 113 2 -11 -20 -60 -49 -110z
m-86 -1941 c21 -38 36 -70 33 -70 -8 0 -126 181 -126 193 1 20 53 -49 93 -123z
m3375 -159 l-32 -131 -256 -154 c-287 -173 -376 -220 -505 -265 -107 -38 -106
-34 6 20 211 102 483 284 603 405 45 44 110 121 146 172 35 50 66 90 67 88 2
-2 -11 -62 -29 -135z m-3345 -7 c70 -87 305 -318 412 -403 105 -84 110 -90 50
-56 -147 83 -288 195 -381 303 -68 79 -154 208 -154 230 0 9 3 12 8 7 4 -6 33
-42 65 -81z m3087 -105 c-95 -86 -182 -147 -282 -199 -118 -61 -140 -65 -38
-7 99 57 210 132 296 201 38 31 71 56 74 55 3 0 -20 -22 -50 -50z m380 -209
c20 -37 -14 -120 -50 -120 -38 0 -51 59 -25 110 18 36 58 41 75 10z m-3624 2
c23 -15 34 -53 34 -117 0 -77 -12 -105 -44 -105 -32 0 -53 27 -66 85 -22 98
21 174 76 137z m785 -121 c203 -97 448 -165 636 -178 87 -6 93 -8 53 -14 -245
-39 -568 49 -797 219 -93 70 -117 97 -46 53 27 -17 96 -53 154 -80z m1788 -96
c-11 -10 -247 -97 -353 -129 -197 -60 -341 -86 -473 -86 -102 0 -348 18 -341
25 2 2 77 8 168 15 298 20 599 71 855 144 117 33 153 41 144 31z m-1759 -80
c14 -8 21 -14 15 -14 -5 0 -21 6 -35 14 -14 8 -20 14 -15 14 6 0 21 -6 35 -14z
m265 -95 c13 -5 14 -9 5 -9 -8 0 -24 4 -35 9 -13 5 -14 9 -5 9 8 0 24 -4 35
-9z m52 -16 c-3 -3 -12 -4 -19 -1 -8 3 -5 6 6 6 11 1 17 -2 13 -5z m40 -10
c-3 -3 -12 -4 -19 -1 -8 3 -5 6 6 6 11 1 17 -2 13 -5z m40 -10 c-3 -3 -12 -4
-19 -1 -8 3 -5 6 6 6 11 1 17 -2 13 -5z m1513 -31 c-278 -155 -479 -229 -650
-239 l-85 -4 103 24 c187 45 490 159 637 239 17 9 37 16 45 16 8 1 -14 -16
-50 -36z m-1473 21 c-3 -3 -12 -4 -19 -1 -8 3 -5 6 6 6 11 1 17 -2 13 -5z
m112 -20 c8 -7 -54 -2 -79 6 -17 6 -9 7 25 3 28 -3 52 -7 54 -9z m1166 -29
c-63 -30 -305 -104 -415 -129 -217 -48 -485 -70 -560 -46 l-25 8 25 1 c14 1
57 10 95 20 39 11 120 24 180 31 61 6 176 24 258 40 81 17 164 30 185 31 20 0
87 13 147 29 122 31 155 35 110 15z m-445 -4 c0 -10 -167 -38 -309 -51 -99 -9
-168 -2 -194 20 -9 8 126 19 348 29 83 4 151 8 153 9 1 1 2 -2 2 -7z"/>
<path d="M2660 3197 c-33 -9 -46 -17 -48 -32 -3 -28 12 -47 39 -49 21 -1 24
-6 25 -46 1 -25 3 -91 4 -148 3 -101 3 -104 -23 -125 -20 -18 -24 -26 -17 -44
9 -21 16 -23 83 -23 41 0 88 5 106 11 38 13 58 44 41 64 -15 18 -61 28 -73 16
-16 -16 -26 -13 -26 7 -1 9 -4 80 -7 158 l-6 141 41 7 c38 6 41 8 37 33 -3 14
-11 30 -18 35 -18 11 -105 8 -158 -5z"/>
<path d="M2982 3197 c-34 -19 -78 -78 -86 -114 -8 -36 8 -75 47 -111 19 -18
41 -25 89 -29 34 -3 68 -9 73 -13 6 -4 22 -10 37 -14 30 -7 44 -40 34 -79 -15
-61 -168 -75 -203 -19 -33 53 -44 62 -64 52 -39 -22 -31 -84 17 -125 33 -28
120 -49 173 -42 54 7 135 60 154 100 18 38 11 96 -19 145 -23 39 -102 72 -173
72 -76 0 -104 45 -56 90 21 20 31 22 74 17 28 -3 64 -13 82 -22 40 -21 79 -13
79 18 0 35 -8 42 -93 76 -37 15 -136 13 -165 -2z"/>
<path d="M2047 3176 c-3 -6 -5 -81 -6 -167 -1 -86 -5 -179 -9 -205 -13 -81 3
-105 53 -82 30 13 35 36 38 171 1 59 4 107 8 107 16 0 100 -125 115 -170 8
-26 10 -35 12 -60 4 -33 92 -15 92 18 0 20 62 142 72 142 5 0 8 8 8 18 0 9 12
35 25 57 l25 40 0 -140 c0 -77 3 -150 6 -162 7 -27 39 -30 70 -9 17 12 19 24
18 93 -1 43 2 84 8 91 7 8 7 12 0 12 -6 0 -13 35 -17 78 -3 42 -13 101 -22
130 -16 52 -17 53 -52 50 -35 -3 -38 -7 -81 -93 -25 -49 -47 -92 -50 -95 -3
-3 -16 -26 -29 -53 l-24 -47 -21 33 c-12 18 -25 40 -31 48 -32 52 -129 190
-136 194 -17 11 -68 12 -72 1z"/>
<path d="M3435 2534 c-13 -14 -27 -40 -30 -57 -4 -18 -13 -41 -19 -52 -7 -11
-16 -33 -20 -50 -11 -47 -59 -149 -73 -158 -7 -4 -13 -17 -13 -28 0 -11 -9
-38 -20 -60 -26 -50 -14 -82 28 -77 21 2 32 13 48 46 11 24 27 48 34 52 8 5
46 7 84 5 39 -3 81 -4 93 -5 16 0 27 -10 36 -32 21 -50 51 -72 76 -58 31 16
26 54 -17 140 -21 41 -50 109 -66 150 -15 41 -34 90 -42 108 -8 18 -14 43 -14
55 0 50 -47 62 -85 21z m45 -168 c0 -8 11 -39 25 -70 14 -31 25 -59 25 -61 0
-3 -29 -5 -65 -5 -36 0 -65 2 -65 4 0 2 13 37 30 77 16 41 30 75 30 77 0 2 5
0 10 -3 6 -3 10 -12 10 -19z"/>
<path d="M1721 2532 c-19 -16 -21 -30 -22 -227 -2 -233 4 -264 51 -259 14 1
72 5 130 8 92 6 170 20 170 31 0 2 -5 16 -10 30 l-10 26 -125 -6 -125 -6 1 75
1 75 52 6 c28 3 83 7 123 9 39 1 78 8 86 15 19 15 11 48 -14 62 -19 9 -35 9
-181 -7 l-68 -7 0 51 0 51 102 0 c139 1 167 7 175 39 8 32 -17 52 -61 47 -115
-13 -204 -15 -228 -6 -21 8 -31 7 -47 -7z"/>
<path d="M2537 2538 c-15 -11 -18 -39 -22 -217 -3 -112 -8 -208 -11 -213 -3
-4 -1 -8 5 -8 6 0 13 -11 17 -24 8 -33 23 -37 89 -26 31 5 86 9 123 9 79 0
122 13 122 38 -1 42 -11 45 -138 39 -132 -6 -135 -5 -128 54 2 14 4 39 5 57 1
30 4 32 44 37 23 3 79 8 125 10 46 2 88 8 94 14 6 6 8 22 4 35 -8 33 -41 40
-136 27 -132 -17 -130 -18 -130 39 l0 49 128 4 c91 3 131 1 142 -8 11 -9 39
-11 96 -7 l81 6 5 -29 c2 -16 6 -96 7 -178 2 -157 13 -196 51 -196 22 0 41 23
40 47 0 10 -3 68 -5 128 -2 61 -6 136 -8 168 -3 57 -3 58 22 56 14 0 50 -1 79
0 48 1 53 4 63 28 18 49 -1 53 -228 50 -125 -2 -204 1 -206 7 -2 6 -40 8 -93
6 -137 -6 -188 -5 -204 3 -9 4 -23 2 -33 -5z"/>
<path d="M2231 2533 c-13 -3 -45 -26 -71 -52 -54 -54 -70 -104 -70 -217 0 -93
29 -157 84 -183 59 -29 118 -36 174 -21 83 23 134 78 116 124 -10 25 -35 19
-83 -19 -48 -39 -89 -45 -144 -22 -46 20 -58 38 -64 101 -6 58 9 133 35 173
29 46 130 54 152 12 14 -25 56 -25 70 0 13 26 6 40 -40 77 -30 24 -48 30 -86
31 -27 0 -60 -1 -73 -4z"/>
<path d="M3800 2527 c-14 -6 -28 -16 -32 -22 -3 -5 -16 -21 -27 -34 -70 -81
-2 -201 114 -201 126 -1 188 -82 105 -138 -30 -21 -43 -23 -90 -18 -53 7 -90
27 -90 51 0 7 -8 19 -18 28 -17 15 -20 15 -41 0 -19 -13 -22 -22 -17 -51 7
-49 40 -79 105 -98 74 -21 137 -14 194 22 65 40 84 86 68 158 -7 30 -20 61
-29 69 -33 30 -107 57 -158 57 -37 0 -56 5 -73 21 l-22 21 20 31 c26 41 75 46
155 18 32 -11 63 -18 71 -15 19 8 27 32 16 53 -26 48 -184 79 -251 48z"/>
<path d="M1222 2501 c-10 -23 -11 -43 -2 -91 6 -33 10 -89 9 -123 -3 -102 11
-197 32 -218 25 -25 33 -24 65 6 19 18 24 28 17 37 -6 7 -13 30 -16 51 l-6 37
49 0 c84 0 150 -39 150 -90 0 -33 26 -70 49 -70 10 0 26 9 36 20 27 30 13 97
-31 149 -20 22 -31 41 -26 41 22 0 71 59 81 97 18 67 -18 128 -96 164 -34 16
-65 19 -170 19 l-128 0 -13 -29z m275 -71 c45 -27 58 -55 39 -85 -24 -36 -94
-65 -158 -65 l-55 0 -7 48 c-3 26 -9 64 -12 85 l-6 37 83 0 c66 0 91 -4 116
-20z"/>
</g>
</svg>
